<svg width="156" height="156" viewBox="0 0 156 156" fill="none" xmlns="http://www.w3.org/2000/svg">
<g id="Component">
<path id="Vector" d="M138.667 26H17.3337C15.0351 26 12.8307 26.9131 11.2054 28.5384C9.58008 30.1637 8.66699 32.3681 8.66699 34.6667V121.333C8.66699 123.632 9.58008 125.836 11.2054 127.462C12.8307 129.087 15.0351 130 17.3337 130H138.667C140.966 130 143.17 129.087 144.795 127.462C146.421 125.836 147.334 123.632 147.334 121.333V34.6667C147.334 32.3681 146.421 30.1637 144.795 28.5384C143.17 26.9131 140.966 26 138.667 26ZM131.994 121.333H24.527L54.8603 89.96L48.6203 83.9367L17.3337 116.307V41.2533L71.197 94.8567C72.8208 96.4708 75.0174 97.3769 77.307 97.3769C79.5966 97.3769 81.7932 96.4708 83.417 94.8567L138.667 39.91V115.743L106.774 83.85L100.664 89.96L131.994 121.333ZM23.0103 34.6667H131.647L77.307 88.7033L23.0103 34.6667Z" fill="white"/>
</g>
</svg>
