<svg width="56" height="44" viewBox="0 0 56 44" fill="none" xmlns="http://www.w3.org/2000/svg">
<g id="Group 114">
<g id="Group 113">
<path id="Vector" d="M5.60948 14.1102C5.0862 14.1061 4.64357 13.6513 4.66219 13.1374C4.6808 12.6438 5.11929 12.2319 5.61982 12.2339C6.14518 12.2359 6.58574 12.6887 6.56505 13.2047C6.54644 13.7002 6.11002 14.1122 5.60948 14.1081V14.1102Z" fill="url(#paint0_linear_275_141)"/>
<path id="Vector_2" d="M15.4136 19.661C15.9224 19.6753 16.3422 20.1015 16.3402 20.6012C16.3381 21.1029 15.9017 21.5373 15.4053 21.5312C14.8861 21.525 14.4187 21.0519 14.4394 20.5543C14.4621 20.0587 14.911 19.6467 15.4136 19.661Z" fill="url(#paint1_linear_275_141)"/>
<path id="Vector_3" d="M21.7941 6.00521C21.2687 6.01133 20.8488 5.62384 20.8282 5.11399C20.8054 4.62045 21.2894 4.13303 21.792 4.14322C22.307 4.15342 22.7103 4.5613 22.7145 5.07932C22.7186 5.59325 22.3153 6.00113 21.7961 6.00521H21.7941Z" fill="url(#paint2_linear_275_141)"/>
<path id="Vector_4" d="M5.49299 21.653C4.99245 21.6612 4.5519 21.2452 4.53328 20.7475C4.51467 20.2234 4.95522 19.7768 5.48472 19.7788C5.98318 19.7809 6.4196 20.2132 6.42374 20.7088C6.42787 21.1881 5.97905 21.6449 5.49299 21.653Z" fill="url(#paint3_linear_275_141)"/>
<path id="Vector_5" d="M11.4027 17.2811C11.3985 17.7889 10.9807 18.1927 10.4636 18.1906C9.94449 18.1886 9.50807 17.7766 9.50393 17.2892C9.4998 16.7936 9.99619 16.3103 10.4885 16.3307C10.9952 16.3511 11.4068 16.7794 11.4047 17.2831L11.4027 17.2811Z" fill="url(#paint4_linear_275_141)"/>
<path id="Vector_6" d="M17.7524 13.3779C17.7999 12.8945 18.286 12.4683 18.7555 12.503C19.2912 12.5397 19.6945 13.0067 19.6428 13.5349C19.5952 14.0366 19.1402 14.4057 18.6252 14.3609C18.1081 14.316 17.7048 13.8632 17.7524 13.3799V13.3779Z" fill="url(#paint5_linear_275_141)"/>
<path id="Vector_7" d="M14.0588 15.8169C14.0423 16.3247 13.6162 16.7265 13.1074 16.7163C12.551 16.7041 12.158 16.288 12.1849 15.7394C12.2097 15.2132 12.6172 14.8502 13.1529 14.8747C13.6762 14.8992 14.0774 15.3152 14.0609 15.8169H14.0588Z" fill="url(#paint6_linear_275_141)"/>
<path id="Vector_8" d="M8.04576 12.2826C7.51834 12.2724 7.11708 11.8747 7.11915 11.3648C7.12122 10.8264 7.55557 10.4267 8.10781 10.4491C8.60421 10.4695 9.03236 10.9202 9.01581 11.4036C8.99719 11.9012 8.56698 12.2928 8.04576 12.2826Z" fill="url(#paint7_linear_275_141)"/>
<path id="Vector_9" d="M17.6118 17.9343C17.6304 18.436 17.2291 18.8582 16.7059 18.8867C16.1888 18.9153 15.7503 18.5319 15.7213 18.0261C15.6903 17.502 16.1143 17.0431 16.6438 17.0247C17.1154 17.0105 17.5952 17.4591 17.6118 17.9343Z" fill="url(#paint8_linear_275_141)"/>
<path id="Vector_10" d="M6.42055 28.7265C6.42468 29.2201 5.99447 29.6586 5.496 29.6688C4.96651 29.681 4.52182 29.2405 4.53216 28.7143C4.5425 28.2106 4.97478 27.7864 5.47325 27.7966C5.96551 27.8068 6.41641 28.2493 6.42055 28.7265Z" fill="url(#paint9_linear_275_141)"/>
<path id="Vector_11" d="M16.0168 6.02102C16.5257 6.0251 16.9393 6.44318 16.9393 6.95304C16.9393 7.48533 16.505 7.88709 15.9527 7.86874C15.4356 7.85038 15.0365 7.4323 15.0489 6.92449C15.0613 6.44522 15.5204 6.01695 16.0168 6.02102Z" fill="url(#paint10_linear_275_141)"/>
<path id="Vector_12" d="M22.6687 29.5988C22.1351 29.6008 21.7359 29.2235 21.7214 28.7035C21.7049 28.1488 22.1082 27.7429 22.6646 27.7552C23.1858 27.7674 23.5995 28.1732 23.5995 28.6749C23.5995 29.1807 23.1796 29.5967 22.6708 29.5988H22.6687Z" fill="url(#paint11_linear_275_141)"/>
<path id="Vector_13" d="M24.8182 3.64499C25.3187 3.65927 25.7448 4.09978 25.7345 4.59332C25.7241 5.06035 25.2525 5.51106 24.7727 5.51514C24.2535 5.51921 23.8233 5.05831 23.8461 4.52398C23.8647 4.02636 24.3052 3.62867 24.8203 3.64295L24.8182 3.64499Z" fill="url(#paint12_linear_275_141)"/>
<path id="Vector_14" d="M18.6465 34.9016C18.1356 34.8608 17.7426 34.4122 17.784 33.9186C17.8254 33.4251 18.2907 33.0131 18.7727 33.0458C19.3125 33.0825 19.6972 33.5311 19.6517 34.0716C19.6083 34.5774 19.1636 34.9445 18.6465 34.9016Z" fill="url(#paint13_linear_275_141)"/>
<path id="Vector_15" d="M13.1169 32.7301C13.6257 32.7301 14.0456 33.1379 14.0539 33.6437C14.0621 34.1515 13.665 34.5472 13.1314 34.5615C12.5626 34.5778 12.1675 34.1923 12.182 33.6315C12.1944 33.1094 12.5874 32.7301 13.119 32.728L13.1169 32.7301Z" fill="url(#paint14_linear_275_141)"/>
<path id="Vector_16" d="M4.2217 15.1231C4.21343 15.633 3.79356 16.0429 3.28682 16.0388C2.79249 16.0347 2.33745 15.6003 2.33332 15.1231C2.32711 14.5969 2.7656 14.1809 3.31371 14.1911C3.83079 14.2013 4.23204 14.6112 4.22377 15.1231H4.2217Z" fill="url(#paint15_linear_275_141)"/>
<path id="Vector_17" d="M21.6531 11.6921C22.1453 11.7043 22.5879 12.1489 22.5838 12.6322C22.5797 13.136 22.1619 13.55 21.651 13.552C21.1049 13.552 20.6603 13.1176 20.6851 12.6037C20.7099 12.1244 21.1794 11.6819 21.651 11.6921H21.6531Z" fill="url(#paint16_linear_275_141)"/>
<path id="Vector_18" d="M11.3986 32.1557C11.4152 32.637 10.985 33.0918 10.4927 33.1184C10.0025 33.1449 9.50403 32.6676 9.50196 32.1721C9.49989 31.6826 9.92804 31.2706 10.4472 31.2604C10.9539 31.2502 11.3841 31.6541 11.4007 32.1578L11.3986 32.1557Z" fill="url(#paint17_linear_275_141)"/>
<path id="Vector_19" d="M19.6407 36.0492C19.6262 36.5428 19.1774 36.9609 18.6789 36.9507C18.1825 36.9405 17.7151 36.4347 17.7461 35.9452C17.7792 35.4517 18.2342 35.0622 18.7451 35.0887C19.256 35.1172 19.6572 35.5435 19.6407 36.0472V36.0492Z" fill="url(#paint18_linear_275_141)"/>
<path id="Vector_20" d="M17.7669 31.7629C17.7669 32.2625 17.349 32.6827 16.8402 32.6867C16.3542 32.6929 15.895 32.2564 15.8805 31.7751C15.864 31.2897 16.3562 30.8064 16.8589 30.8146C17.3573 30.8227 17.7669 31.251 17.7669 31.7629Z" fill="url(#paint19_linear_275_141)"/>
<path id="Vector_21" d="M11.5286 9.73394C11.5286 10.2479 11.1212 10.6496 10.6041 10.6476C10.087 10.6476 9.66301 10.2397 9.6568 9.7421C9.6506 9.25672 10.0829 8.80193 10.5689 8.78561C11.1026 8.7693 11.5328 9.19146 11.5307 9.73394H11.5286Z" fill="url(#paint20_linear_275_141)"/>
<path id="Vector_22" d="M15.5274 28.2425C16.0403 28.2547 16.4643 28.685 16.4499 29.1745C16.4354 29.6578 15.9845 30.1024 15.5046 30.1024C14.9896 30.1024 14.5284 29.6272 14.5532 29.1255C14.578 28.6259 15.0165 28.2302 15.5274 28.2425Z" fill="url(#paint21_linear_275_141)"/>
<path id="Vector_23" d="M22.5798 36.8599C22.5612 37.3412 22.0937 37.7736 21.6098 37.7593C21.1092 37.7451 20.648 37.2413 20.6852 36.7498C20.7224 36.2563 21.1692 35.8769 21.6904 35.8994C22.193 35.9218 22.6026 36.3603 22.5819 36.8599H22.5798Z" fill="url(#paint22_linear_275_141)"/>
<path id="Vector_24" d="M22.6354 19.877C23.1607 19.877 23.5765 20.2665 23.5889 20.7702C23.6013 21.2842 23.1442 21.7328 22.623 21.7226C22.1121 21.7124 21.715 21.3005 21.717 20.7825C21.717 20.2481 22.0935 19.877 22.6354 19.877Z" fill="url(#paint23_linear_275_141)"/>
<path id="Vector_25" d="M18.8239 6.8161C18.3089 6.80386 17.8952 6.38782 17.9014 5.88816C17.9076 5.3987 18.3503 4.95615 18.8343 4.95411C19.3699 4.95207 19.7878 5.38239 19.7733 5.92487C19.7609 6.43473 19.341 6.82833 18.8239 6.8161Z" fill="url(#paint24_linear_275_141)"/>
<path id="Vector_26" d="M21.4235 27.0822C20.9519 27.0965 20.4803 26.656 20.4534 26.1747C20.4265 25.6852 20.834 25.2529 21.3552 25.2223C21.8868 25.1917 22.3418 25.6098 22.3501 26.1359C22.3563 26.6193 21.9199 27.0639 21.4255 27.0802L21.4235 27.0822Z" fill="url(#paint25_linear_275_141)"/>
<path id="Vector_27" d="M15.7209 23.4221C15.7209 23.9503 15.2804 24.3602 14.7323 24.3439C14.2152 24.3276 13.8201 23.9156 13.8346 23.4017C13.8491 22.8919 14.271 22.4881 14.7798 22.4962C15.2762 22.5044 15.723 22.9449 15.723 23.4201L15.7209 23.4221Z" fill="url(#paint26_linear_275_141)"/>
<path id="Vector_28" d="M25.8291 30.4424C25.8229 30.9584 25.3576 31.3887 24.8322 31.3642C24.3213 31.3418 23.9408 30.9237 23.9573 30.3996C23.9718 29.8877 24.3875 29.5022 24.9087 29.5165C25.4258 29.5287 25.8354 29.9427 25.8291 30.4424Z" fill="url(#paint27_linear_275_141)"/>
<path id="Vector_29" d="M1.10502 16.2622C1.62831 16.2622 2.03784 16.6579 2.04818 17.1636C2.05852 17.6898 1.62417 18.0977 1.06779 18.0854C0.527956 18.0732 0.159793 17.6918 0.170134 17.1596C0.180476 16.6354 0.569322 16.2622 1.10502 16.2622Z" fill="url(#paint28_linear_275_141)"/>
<path id="Vector_30" d="M19.4219 15.6773C19.4281 16.1994 19.0413 16.6114 18.5284 16.6257C18.0051 16.642 17.5459 16.1994 17.5501 15.6855C17.5542 15.1858 17.972 14.78 18.4891 14.7759C19.0082 14.7718 19.4178 15.1675 19.424 15.6773H19.4219Z" fill="url(#paint29_linear_275_141)"/>
<path id="Vector_31" d="M13.2375 9.17009C12.7308 9.15581 12.3068 8.73365 12.3088 8.24419C12.3088 7.72414 12.7597 7.3183 13.3078 7.34073C13.8187 7.36112 14.2324 7.79552 14.2096 8.28498C14.1848 8.77648 13.7401 9.1864 13.2396 9.17213L13.2375 9.17009Z" fill="url(#paint30_linear_275_141)"/>
<path id="Vector_32" d="M25.5502 37.33C25.5481 37.844 25.1448 38.258 24.6401 38.262C24.121 38.2661 23.6763 37.8134 23.6928 37.2954C23.7073 36.8059 24.1541 36.3797 24.6463 36.3878C25.1489 36.396 25.5543 36.8181 25.5502 37.33Z" fill="url(#paint31_linear_275_141)"/>
<path id="Vector_33" d="M22.3483 23.3116C22.3483 23.8132 21.9367 24.2232 21.4237 24.2334C20.8818 24.2436 20.4351 23.8173 20.4516 23.3034C20.4661 22.8139 20.9108 22.3959 21.4072 22.3999C21.9098 22.404 22.3503 22.8302 22.3483 23.3136V23.3116Z" fill="url(#paint32_linear_275_141)"/>
<path id="Vector_34" d="M4.08671 26.814C4.08257 27.3075 3.6565 27.7113 3.14148 27.7133C2.62647 27.7133 2.19832 27.3136 2.19005 26.8201C2.18178 26.3143 2.64922 25.8615 3.16423 25.8758C3.65856 25.8901 4.09291 26.3306 4.08671 26.8119V26.814Z" fill="url(#paint33_linear_275_141)"/>
<path id="Vector_35" d="M3.12776 23.572C2.63343 23.5639 2.19495 23.1315 2.19288 22.6482C2.19081 22.1342 2.64377 21.7162 3.18361 21.7366C3.69449 21.7549 4.10608 22.1832 4.08747 22.6747C4.06885 23.1641 3.62416 23.5802 3.12776 23.572Z" fill="url(#paint34_linear_275_141)"/>
</g>
<g id="Group 25">
<path id="Vector_36" d="M24.882 19.9372C24.336 19.9413 23.9596 19.5783 23.9513 19.046C23.943 18.5076 24.3691 18.0793 24.9007 18.0936C25.4115 18.1058 25.819 18.528 25.8107 19.0297C25.8004 19.5538 25.4115 19.9352 24.882 19.9393V19.9372Z" fill="url(#paint35_linear_275_141)"/>
<path id="Vector_37" d="M15.7481 26.37C15.7316 26.8655 15.3014 27.2592 14.7863 27.251C14.2734 27.2449 13.8515 26.8309 13.8535 26.3394C13.8556 25.8316 14.3292 25.3911 14.8463 25.4155C15.3386 25.438 15.7647 25.8887 15.7481 26.37Z" fill="url(#paint36_linear_275_141)"/>
<g id="Group 24">
<path id="Vector_38" d="M26.1086 21.6769C26.1086 15.0812 26.1086 8.48546 26.1107 1.88976C26.1107 1.56364 26.1189 1.22937 26.1851 0.909367C26.3051 0.33051 26.7539 -0.0119125 27.3082 0.000316885C27.8419 0.0125463 28.2514 0.348854 28.3817 0.90529C28.5244 1.51676 28.4417 2.13842 28.452 2.756C28.4582 3.10862 28.5761 3.27575 28.9629 3.29817C35.1369 3.65486 40.6841 5.82761 45.8715 9.01337C49.1312 11.0149 52.1199 13.3609 54.8481 16.0269C54.9866 16.1635 55.1294 16.3 55.2452 16.4529C55.6278 16.9604 55.5906 17.5923 55.1666 17.9836C54.7033 18.4116 54.0704 18.4198 53.5802 17.9408C52.6308 17.0155 51.6587 16.1146 50.6411 15.2646C45.704 11.1372 40.2808 7.88826 33.9372 6.29844C32.355 5.90303 30.7396 5.7094 29.1201 5.55041C28.6464 5.50353 28.4396 5.64825 28.4479 6.14965C28.4706 7.52342 28.4624 8.89515 28.452 10.2689C28.4499 10.6501 28.5761 10.8172 28.9898 10.8417C35.1575 11.2208 40.7089 13.3833 45.8922 16.5772C49.1994 18.6155 52.2337 20.9982 54.9908 23.7192C55.7002 24.4203 55.7085 25.0338 54.9928 25.7268C49.6276 30.9202 43.555 35.0069 36.3262 37.2795C33.96 38.0235 31.5297 38.4393 29.0539 38.6023C28.5947 38.6329 28.4334 38.7898 28.4479 39.2321C28.4706 39.9476 28.4541 40.663 28.4541 41.3784C28.4541 41.5516 28.4582 41.7269 28.4499 41.9002C28.4107 42.8072 27.9556 43.3636 27.2648 43.3514C26.5947 43.3412 26.1562 42.8011 26.1127 41.9287C26.1024 41.7167 26.1065 41.5027 26.1065 41.2908C26.1065 34.7542 26.1065 28.2155 26.1065 21.6789L26.1086 21.6769ZM37.8836 15.0791C43.1289 20.5824 42.9779 29.0675 37.9332 34.3139C38.0056 34.2996 38.0636 34.2976 38.1132 34.2792C43.5405 32.1371 48.2439 28.9044 52.5088 25.0094C52.7818 24.7607 52.6887 24.614 52.4653 24.4101C49.6855 21.8562 46.6823 19.5999 43.3957 17.7166C41.6521 16.7179 39.8465 15.8414 37.8836 15.0832V15.0791ZM38.6654 20.4213C38.0553 21.899 37.2011 22.9895 35.8897 23.6458C35.3582 23.9128 35.1906 24.2287 35.1886 24.8117C35.1844 27.229 34.1585 29.1735 32.2288 30.6553C31.2836 31.3809 30.208 31.8293 29.0332 32.0494C28.7395 32.1045 28.452 32.1513 28.4562 32.561C28.4665 33.682 28.4603 34.8031 28.4603 35.9221C28.4603 36.2421 28.5968 36.3623 28.9381 36.3216C30.9423 36.081 32.7934 35.4431 34.4336 34.2772C37.532 32.0739 39.2239 29.0797 39.4845 25.3253C39.5983 23.6907 39.3046 22.1029 38.6675 20.4234L38.6654 20.4213ZM33.0168 22.1029C35.0686 22.1151 36.6716 20.5722 36.6757 18.5788C36.6778 16.669 35.0707 15.0608 33.1347 15.0424C31.1057 15.0221 29.4655 16.5772 29.4386 18.5421C29.4138 20.4662 31.0436 22.0886 33.0168 22.1008V22.1029ZM28.5865 22.3658C28.5265 22.431 28.4789 22.4575 28.4789 22.4861C28.4706 24.8239 28.4644 27.1597 28.4624 29.4976C28.4624 29.7829 28.6133 29.8379 28.8905 29.789C31.0643 29.4079 33.0251 27.0007 32.9237 24.8382C32.9072 24.5019 32.7934 24.3551 32.4418 24.3388C31.7676 24.3082 31.1429 24.08 30.5286 23.8109C29.7675 23.4766 29.1739 22.9243 28.5844 22.3658H28.5865ZM30.3197 13.42C29.7509 13.1938 29.2752 13.2142 28.8181 13.1326C28.6361 13.1 28.4892 13.1693 28.481 13.3589C28.4644 13.8256 28.3796 14.2985 28.5637 14.8488C29.0808 14.2679 29.6227 13.8338 30.3197 13.42Z" fill="url(#paint37_linear_275_141)"/>
<path id="Vector_39" d="M1.87394 24.7324C1.8698 25.2647 1.47889 25.6481 0.943189 25.644C0.417833 25.6379 -0.0041065 25.228 3.01583e-05 24.7263C0.00416682 24.2205 0.424038 23.8208 0.951462 23.8208C1.4975 23.8208 1.87601 24.194 1.87187 24.7324H1.87394Z" fill="url(#paint38_linear_275_141)"/>
</g>
</g>
<path id="Vector_40" d="M16.8077 14.4927C16.8159 14.9842 16.3981 15.4023 15.8852 15.4145C15.366 15.4267 14.9358 15.0413 14.9131 14.5437C14.8883 14.0359 15.3412 13.579 15.8645 13.5811C16.363 13.5811 16.7994 14.0053 16.8077 14.4927Z" fill="url(#paint39_linear_275_141)"/>
<path id="Vector_41" d="M15.8721 35.8704C15.3757 35.8785 14.931 35.4645 14.9082 34.9751C14.8875 34.4836 15.2971 34.0533 15.81 34.0349C16.3498 34.0145 16.8049 34.4305 16.8049 34.9445C16.8049 35.4299 16.3664 35.8622 15.8721 35.8704Z" fill="url(#paint40_linear_275_141)"/>
<path id="Vector_42" d="M25.5748 12.1509C25.5624 12.6404 25.1198 13.0686 24.6296 13.0646C24.1084 13.0605 23.6906 12.6098 23.7154 12.0755C23.7382 11.5717 24.1746 11.1699 24.6751 11.1944C25.1715 11.2189 25.5852 11.6574 25.5728 12.1509H25.5748Z" fill="url(#paint41_linear_275_141)"/>
<path id="Vector_43" d="M7.8949 19.8246C7.34886 19.8144 6.98277 19.433 6.99518 18.8926C7.00759 18.3623 7.40678 17.9871 7.94248 18.0014C8.45956 18.0156 8.87736 18.4419 8.86495 18.9395C8.85254 19.4432 8.4244 19.8348 7.8949 19.8246Z" fill="url(#paint42_linear_275_141)"/>
<path id="Vector_44" d="M7.91781 31.4478C7.38832 31.4539 6.98293 31.0624 6.97879 30.5382C6.97466 30.0141 7.36971 29.6164 7.8992 29.6123C8.43076 29.6083 8.83408 29.9978 8.84029 30.5199C8.84443 31.042 8.44937 31.4417 7.91781 31.4478Z" fill="url(#paint43_linear_275_141)"/>
</g>
<defs>
<linearGradient id="paint0_linear_275_141" x1="54.7778" y1="13.172" x2="0.225617" y2="13.172" gradientUnits="userSpaceOnUse">
<stop stop-color="#6EAD8B"/>
<stop offset="1" stop-color="#419CCB"/>
</linearGradient>
<linearGradient id="paint1_linear_275_141" x1="0.000360667" y1="20.5971" x2="0.207194" y2="20.5971" gradientUnits="userSpaceOnUse">
<stop stop-color="#6EAD8B"/>
<stop offset="1" stop-color="#419CCB"/>
</linearGradient>
<linearGradient id="paint2_linear_275_141" x1="54.7778" y1="5.07524" x2="0.225514" y2="5.07524" gradientUnits="userSpaceOnUse">
<stop stop-color="#6EAD8B"/>
<stop offset="1" stop-color="#419CCB"/>
</linearGradient>
<linearGradient id="paint3_linear_275_141" x1="-0.000496998" y1="20.7169" x2="0.206336" y2="20.7169" gradientUnits="userSpaceOnUse">
<stop stop-color="#6EAD8B"/>
<stop offset="1" stop-color="#419CCB"/>
</linearGradient>
<linearGradient id="paint4_linear_275_141" x1="54.7776" y1="17.2607" x2="0.2254" y2="17.2607" gradientUnits="userSpaceOnUse">
<stop stop-color="#6EAD8B"/>
<stop offset="1" stop-color="#419CCB"/>
</linearGradient>
<linearGradient id="paint5_linear_275_141" x1="54.7775" y1="13.4309" x2="0.225316" y2="13.4309" gradientUnits="userSpaceOnUse">
<stop stop-color="#6EAD8B"/>
<stop offset="1" stop-color="#419CCB"/>
</linearGradient>
<linearGradient id="paint6_linear_275_141" x1="54.778" y1="15.7945" x2="0.225798" y2="15.7945" gradientUnits="userSpaceOnUse">
<stop stop-color="#6EAD8B"/>
<stop offset="1" stop-color="#419CCB"/>
</linearGradient>
<linearGradient id="paint7_linear_275_141" x1="54.7776" y1="11.3648" x2="0.225399" y2="11.3648" gradientUnits="userSpaceOnUse">
<stop stop-color="#6EAD8B"/>
<stop offset="1" stop-color="#419CCB"/>
</linearGradient>
<linearGradient id="paint8_linear_275_141" x1="54.7776" y1="17.9568" x2="0.225393" y2="17.9568" gradientUnits="userSpaceOnUse">
<stop stop-color="#6EAD8B"/>
<stop offset="1" stop-color="#419CCB"/>
</linearGradient>
<linearGradient id="paint9_linear_275_141" x1="54.7781" y1="28.7347" x2="0.225894" y2="28.7347" gradientUnits="userSpaceOnUse">
<stop stop-color="#6EAD8B"/>
<stop offset="1" stop-color="#419CCB"/>
</linearGradient>
<linearGradient id="paint10_linear_275_141" x1="54.7774" y1="6.94488" x2="0.22514" y2="6.94488" gradientUnits="userSpaceOnUse">
<stop stop-color="#6EAD8B"/>
<stop offset="1" stop-color="#419CCB"/>
</linearGradient>
<linearGradient id="paint11_linear_275_141" x1="54.7775" y1="28.677" x2="0.225271" y2="28.677" gradientUnits="userSpaceOnUse">
<stop stop-color="#6EAD8B"/>
<stop offset="1" stop-color="#419CCB"/>
</linearGradient>
<linearGradient id="paint12_linear_275_141" x1="54.778" y1="4.58108" x2="0.225743" y2="4.58108" gradientUnits="userSpaceOnUse">
<stop stop-color="#6EAD8B"/>
<stop offset="1" stop-color="#419CCB"/>
</linearGradient>
<linearGradient id="paint13_linear_275_141" x1="54.7782" y1="33.9737" x2="0.225934" y2="33.9737" gradientUnits="userSpaceOnUse">
<stop stop-color="#6EAD8B"/>
<stop offset="1" stop-color="#419CCB"/>
</linearGradient>
<linearGradient id="paint14_linear_275_141" x1="54.7772" y1="33.6458" x2="0.22501" y2="33.6458" gradientUnits="userSpaceOnUse">
<stop stop-color="#6EAD8B"/>
<stop offset="1" stop-color="#419CCB"/>
</linearGradient>
<linearGradient id="paint15_linear_275_141" x1="54.7779" y1="15.115" x2="0.225687" y2="15.115" gradientUnits="userSpaceOnUse">
<stop stop-color="#6EAD8B"/>
<stop offset="1" stop-color="#419CCB"/>
</linearGradient>
<linearGradient id="paint16_linear_275_141" x1="54.7774" y1="12.62" x2="0.22514" y2="12.62" gradientUnits="userSpaceOnUse">
<stop stop-color="#6EAD8B"/>
<stop offset="1" stop-color="#419CCB"/>
</linearGradient>
<linearGradient id="paint17_linear_275_141" x1="54.7777" y1="32.1884" x2="0.225494" y2="32.1884" gradientUnits="userSpaceOnUse">
<stop stop-color="#6EAD8B"/>
<stop offset="1" stop-color="#419CCB"/>
</linearGradient>
<linearGradient id="paint18_linear_275_141" x1="54.7775" y1="36.0207" x2="0.225268" y2="36.0207" gradientUnits="userSpaceOnUse">
<stop stop-color="#6EAD8B"/>
<stop offset="1" stop-color="#419CCB"/>
</linearGradient>
<linearGradient id="paint19_linear_275_141" x1="54.7776" y1="31.7506" x2="0.22533" y2="31.7506" gradientUnits="userSpaceOnUse">
<stop stop-color="#6EAD8B"/>
<stop offset="1" stop-color="#419CCB"/>
</linearGradient>
<linearGradient id="paint20_linear_275_141" x1="54.7775" y1="9.71559" x2="0.225214" y2="9.71559" gradientUnits="userSpaceOnUse">
<stop stop-color="#6EAD8B"/>
<stop offset="1" stop-color="#419CCB"/>
</linearGradient>
<linearGradient id="paint21_linear_275_141" x1="54.7781" y1="29.1724" x2="0.225876" y2="29.1724" gradientUnits="userSpaceOnUse">
<stop stop-color="#6EAD8B"/>
<stop offset="1" stop-color="#419CCB"/>
</linearGradient>
<linearGradient id="paint22_linear_275_141" x1="54.7775" y1="36.8294" x2="0.225289" y2="36.8294" gradientUnits="userSpaceOnUse">
<stop stop-color="#6EAD8B"/>
<stop offset="1" stop-color="#419CCB"/>
</linearGradient>
<linearGradient id="paint23_linear_275_141" x1="-0.000433401" y1="20.8008" x2="0.2064" y2="20.8008" gradientUnits="userSpaceOnUse">
<stop stop-color="#6EAD8B"/>
<stop offset="1" stop-color="#419CCB"/>
</linearGradient>
<linearGradient id="paint24_linear_275_141" x1="54.7777" y1="5.88408" x2="0.225487" y2="5.88408" gradientUnits="userSpaceOnUse">
<stop stop-color="#6EAD8B"/>
<stop offset="1" stop-color="#419CCB"/>
</linearGradient>
<linearGradient id="paint25_linear_275_141" x1="54.7774" y1="26.1523" x2="0.225135" y2="26.1523" gradientUnits="userSpaceOnUse">
<stop stop-color="#6EAD8B"/>
<stop offset="1" stop-color="#419CCB"/>
</linearGradient>
<linearGradient id="paint26_linear_275_141" x1="54.7772" y1="23.4221" x2="0.225" y2="23.4221" gradientUnits="userSpaceOnUse">
<stop stop-color="#6EAD8B"/>
<stop offset="1" stop-color="#419CCB"/>
</linearGradient>
<linearGradient id="paint27_linear_275_141" x1="54.7775" y1="30.4404" x2="0.225288" y2="30.4404" gradientUnits="userSpaceOnUse">
<stop stop-color="#6EAD8B"/>
<stop offset="1" stop-color="#419CCB"/>
</linearGradient>
<linearGradient id="paint28_linear_275_141" x1="54.7782" y1="17.1738" x2="0.225979" y2="17.1738" gradientUnits="userSpaceOnUse">
<stop stop-color="#6EAD8B"/>
<stop offset="1" stop-color="#419CCB"/>
</linearGradient>
<linearGradient id="paint29_linear_275_141" x1="54.778" y1="15.6998" x2="0.225725" y2="15.6998" gradientUnits="userSpaceOnUse">
<stop stop-color="#6EAD8B"/>
<stop offset="1" stop-color="#419CCB"/>
</linearGradient>
<linearGradient id="paint30_linear_275_141" x1="54.7779" y1="8.25439" x2="0.225659" y2="8.25439" gradientUnits="userSpaceOnUse">
<stop stop-color="#6EAD8B"/>
<stop offset="1" stop-color="#419CCB"/>
</linearGradient>
<linearGradient id="paint31_linear_275_141" x1="54.7778" y1="37.3259" x2="0.225556" y2="37.3259" gradientUnits="userSpaceOnUse">
<stop stop-color="#6EAD8B"/>
<stop offset="1" stop-color="#419CCB"/>
</linearGradient>
<linearGradient id="paint32_linear_275_141" x1="54.7777" y1="23.3156" x2="0.225397" y2="23.3156" gradientUnits="userSpaceOnUse">
<stop stop-color="#6EAD8B"/>
<stop offset="1" stop-color="#419CCB"/>
</linearGradient>
<linearGradient id="paint33_linear_275_141" x1="54.7774" y1="26.7936" x2="0.225134" y2="26.7936" gradientUnits="userSpaceOnUse">
<stop stop-color="#6EAD8B"/>
<stop offset="1" stop-color="#419CCB"/>
</linearGradient>
<linearGradient id="paint34_linear_275_141" x1="54.7781" y1="22.6543" x2="0.225894" y2="22.6543" gradientUnits="userSpaceOnUse">
<stop stop-color="#6EAD8B"/>
<stop offset="1" stop-color="#419CCB"/>
</linearGradient>
<linearGradient id="paint35_linear_275_141" x1="54.7777" y1="19.0134" x2="0.22547" y2="19.0134" gradientUnits="userSpaceOnUse">
<stop stop-color="#6EAD8B"/>
<stop offset="1" stop-color="#419CCB"/>
</linearGradient>
<linearGradient id="paint36_linear_275_141" x1="54.7775" y1="26.3312" x2="0.225297" y2="26.3312" gradientUnits="userSpaceOnUse">
<stop stop-color="#6EAD8B"/>
<stop offset="1" stop-color="#419CCB"/>
</linearGradient>
<linearGradient id="paint37_linear_275_141" x1="54.7777" y1="21.6769" x2="0.225504" y2="21.6769" gradientUnits="userSpaceOnUse">
<stop stop-color="#6EAD8B"/>
<stop offset="1" stop-color="#419CCB"/>
</linearGradient>
<linearGradient id="paint38_linear_275_141" x1="54.7777" y1="24.7324" x2="0.225477" y2="24.7324" gradientUnits="userSpaceOnUse">
<stop stop-color="#6EAD8B"/>
<stop offset="1" stop-color="#419CCB"/>
</linearGradient>
<linearGradient id="paint39_linear_275_141" x1="54.7781" y1="14.4968" x2="0.225858" y2="14.4968" gradientUnits="userSpaceOnUse">
<stop stop-color="#6EAD8B"/>
<stop offset="1" stop-color="#419CCB"/>
</linearGradient>
<linearGradient id="paint40_linear_275_141" x1="54.7774" y1="34.9526" x2="0.225143" y2="34.9526" gradientUnits="userSpaceOnUse">
<stop stop-color="#6EAD8B"/>
<stop offset="1" stop-color="#419CCB"/>
</linearGradient>
<linearGradient id="paint41_linear_275_141" x1="54.7776" y1="12.1285" x2="0.225379" y2="12.1285" gradientUnits="userSpaceOnUse">
<stop stop-color="#6EAD8B"/>
<stop offset="1" stop-color="#419CCB"/>
</linearGradient>
<linearGradient id="paint42_linear_275_141" x1="54.7778" y1="18.913" x2="0.225531" y2="18.913" gradientUnits="userSpaceOnUse">
<stop stop-color="#6EAD8B"/>
<stop offset="1" stop-color="#419CCB"/>
</linearGradient>
<linearGradient id="paint43_linear_275_141" x1="54.7779" y1="30.5301" x2="0.225693" y2="30.5301" gradientUnits="userSpaceOnUse">
<stop stop-color="#6EAD8B"/>
<stop offset="1" stop-color="#419CCB"/>
</linearGradient>
</defs>
</svg>
