<svg width="128" height="126" viewBox="0 0 128 126" fill="none" xmlns="http://www.w3.org/2000/svg">
<g id="ic:baseline-whatsapp">
<path id="Vector" d="M101.6 25.7775C96.7099 20.9166 90.8857 17.0623 84.467 14.4394C78.0482 11.8165 71.1634 10.4773 64.2136 10.5C35.0936 10.5 11.3603 33.8625 11.3603 62.5275C11.3603 71.715 13.8136 80.64 18.4003 88.515L10.9336 115.5L38.9336 108.255C46.6669 112.403 55.3603 114.607 64.2136 114.607C93.3336 114.607 117.067 91.245 117.067 62.58C117.067 48.6675 111.574 35.595 101.6 25.7775ZM64.2136 105.787C56.3203 105.787 48.5869 103.688 41.8136 99.75L40.2136 98.805L23.5736 103.11L28.0003 87.15L26.9336 85.5225C22.5472 78.6296 20.2185 70.6612 20.2136 62.5275C20.2136 38.6925 39.9469 19.2675 64.1603 19.2675C75.8936 19.2675 86.9336 23.7825 95.2003 31.9725C99.2942 35.9828 102.538 40.7534 104.745 46.0075C106.951 51.2616 108.076 56.8947 108.054 62.58C108.16 86.415 88.4269 105.787 64.2136 105.787ZM88.3203 73.4475C86.9869 72.8175 80.4803 69.6675 79.3069 69.195C78.0803 68.775 77.2269 68.565 76.3203 69.825C75.4136 71.1375 72.9069 74.0775 72.1603 74.9175C71.4136 75.81 70.6136 75.915 69.2803 75.2325C67.9469 74.6025 63.6803 73.185 58.6669 68.775C54.7203 65.31 52.1069 61.0575 51.3069 59.745C50.5603 58.4325 51.2003 57.75 51.8936 57.0675C52.4803 56.49 53.2269 55.545 53.8669 54.81C54.5069 54.075 54.7736 53.4975 55.2003 52.6575C55.6269 51.765 55.4136 51.03 55.0936 50.4C54.7736 49.77 52.1069 43.365 51.0403 40.74C49.9736 38.22 48.8536 38.535 48.0536 38.4825H45.4936C44.5869 38.4825 43.2003 38.7975 41.9736 40.11C40.8003 41.4225 37.3869 44.5725 37.3869 50.9775C37.3869 57.3825 42.1336 63.5775 42.7736 64.4175C43.4136 65.31 52.1069 78.435 65.3336 84.0525C68.4803 85.4175 70.9336 86.205 72.8536 86.7825C76.0003 87.78 78.8803 87.6225 81.1736 87.3075C83.7336 86.94 89.0136 84.1575 90.0803 81.1125C91.2002 78.0675 91.2003 75.495 90.8269 74.9175C90.4536 74.34 89.6536 74.0775 88.3203 73.4475Z" fill="white"/>
</g>
</svg>
