<svg width="104" height="108" viewBox="0 0 104 108" fill="none" xmlns="http://www.w3.org/2000/svg">
<g id="&#240;&#159;&#166;&#134; icon &#34;Alternate Phone&#34;">
<path id="Vector" d="M101.034 76.3166L78.2837 66.1914C77.3119 65.7613 76.2317 65.6707 75.2059 65.9332C74.1802 66.1957 73.2643 66.7971 72.5961 67.6469L62.521 80.43C46.7089 72.688 33.9838 59.4735 26.5286 43.0533L38.8382 32.5906C39.6582 31.8981 40.2385 30.9469 40.4914 29.8812C40.7443 28.8155 40.656 27.6932 40.2398 26.6843L30.4896 3.05884C30.0328 1.97125 29.2249 1.08326 28.2051 0.548008C27.1854 0.0127517 26.0177 -0.136227 24.9036 0.126761L3.77819 5.18935C2.70399 5.44695 1.74558 6.07505 1.05939 6.97114C0.373198 7.86723 -0.000247453 8.97839 1.23019e-07 10.1233C1.23019e-07 64.2297 42.2304 108 94.2517 108C95.3545 108.001 96.425 107.613 97.2883 106.901C98.1516 106.188 98.7567 105.192 99.0049 104.076L103.88 82.1386C104.132 80.9759 103.985 79.7585 103.466 78.6959C102.946 77.6333 102.086 76.792 101.034 76.3166Z" fill="white"/>
</g>
</svg>
