<svg width="62" height="37" viewBox="0 0 62 37" fill="none" xmlns="http://www.w3.org/2000/svg">
<path id="Vector" d="M31.0306 14.7818C30.3835 18.4546 28.2205 20.5446 24.4676 21.1039C28.233 21.6578 30.4044 23.7725 30.9874 27.5032C31.5633 23.7835 33.7054 21.6729 37.475 21.1508C37.2031 20.9469 36.9325 20.9648 36.6843 20.9166C35.4138 20.6713 34.5115 20.0018 34.1489 18.7398C33.8002 17.5275 34.2158 16.5479 35.0958 15.6772C40.5055 10.3263 47.8926 2.96126 50.163 0.715641C50.3304 0.550319 50.4935 0.375354 50.6818 0.236208C51.1518 -0.110967 51.7361 -0.0737695 52.0806 0.336779C52.4446 0.770748 52.4501 1.23089 52.0806 1.67175C51.9439 1.83569 51.7849 1.98173 51.6329 2.1319C48.099 5.62983 52.5101 1.27222 48.979 4.77429C47.6249 6.11752 46.2916 7.48143 44.9305 8.81778C44.5651 9.17735 44.5344 9.38125 45.0058 9.68571C48.5313 11.9575 51.612 14.7377 54.4416 17.8058C56.0635 19.5651 58.0871 20.5597 60.5221 20.6672C60.6936 20.6741 60.8679 20.6865 61.0353 20.7196C61.6489 20.8408 62.0436 21.2968 61.9961 21.8176C61.9473 22.3521 61.5094 22.742 60.8637 22.7351C58.4316 22.7089 56.2574 21.9374 54.3329 20.4716C53.63 19.9357 53.0219 19.3033 52.4278 18.6544C50.9649 17.0563 49.3806 15.5822 47.7057 14.2031C47.6611 14.1659 47.5928 14.1577 47.4477 14.1026C49.5508 19.4121 49.3137 24.5578 46.6445 29.6097C46.9624 29.6731 47.1228 29.4788 47.2999 29.3631C49.0864 28.2004 50.7501 26.8819 52.3623 25.4973C52.994 24.9545 53.5756 24.9256 54.0107 25.4078C54.4165 25.8583 54.351 26.4686 53.7625 26.9756C48.3779 31.628 42.4621 35.2982 35.2925 36.6097C30.3082 37.5217 25.5136 36.7833 20.8542 34.9372C16.2577 33.1159 12.2217 30.4157 8.50092 27.225C8.22479 26.988 7.94448 26.7524 7.67811 26.5044C7.15932 26.0209 7.08401 25.423 7.4745 24.9738C7.87893 24.5096 8.4549 24.4737 9.01413 24.9642C10.855 26.5788 12.7544 28.1149 14.8101 29.4568C14.983 29.5698 15.1615 29.6731 15.4795 29.866C14.0946 27.3145 13.3165 24.7603 13.1617 22.0146C13.0069 19.2647 13.5159 16.6444 14.5911 14.0075C13.8283 14.4828 13.2704 15.0394 12.6973 15.5629C11.3989 16.7477 10.1675 18.0014 8.96392 19.2826C6.9836 21.3877 4.51099 22.5188 1.61163 22.7365C1.44009 22.7489 1.26577 22.7489 1.09423 22.7392C0.455508 22.7007 0.0371294 22.3287 0.00226457 21.7762C-0.0326003 21.2279 0.336967 20.8036 0.982664 20.7085C1.44985 20.6396 1.93238 20.6617 2.39678 20.5859C4.4036 20.2594 6.0799 19.335 7.47171 17.8664C9.46179 15.7654 11.5188 13.7333 13.8115 11.9451C17.4877 9.07816 21.4525 6.76779 26.0463 5.6436C30.3737 4.58554 34.6007 4.97267 38.7469 6.50465C39.486 6.77743 39.7831 7.28166 39.5767 7.86029C39.3619 8.46233 38.7692 8.68276 38.0217 8.40585C31.9831 6.16161 26.236 6.97444 20.6199 9.8717C18.2952 11.0717 17.1418 13.1106 16.319 15.3246C14.0207 21.5035 15.1713 27.0803 19.6758 31.96C19.9868 32.2962 20.3578 32.5304 20.7817 32.7123C24.1859 34.1726 27.7226 35.0309 31.449 34.9537C34.9689 34.8807 38.309 34.0004 41.5012 32.5662C42.3784 32.1722 42.8916 31.3621 43.4536 30.6457C45.4493 28.1025 46.551 25.2204 46.7351 21.9911C46.9624 18.011 45.8175 14.4732 43.3504 11.332C43.0394 10.9353 42.8358 10.8802 42.4523 11.2659C40.5027 13.2264 38.5321 15.1661 36.5588 17.1031C36.2254 17.431 36.04 17.7796 36.1641 18.2439C36.2896 18.7136 36.6717 18.8252 37.0957 18.9051C39.0007 19.2647 40.9029 19.6353 42.8065 20.0032C42.9962 20.0404 43.1873 20.0789 43.3741 20.1271C43.8985 20.2649 44.1858 20.5969 44.1718 21.1425C44.1579 21.6908 43.8469 22.0063 43.317 22.111C41.7745 22.4141 40.2293 22.7089 38.6855 23.0065C38.0091 23.1374 37.323 23.2338 36.6578 23.406C34.8462 23.8717 33.6803 25.0083 33.287 26.8213C32.8617 28.7776 32.5019 30.7477 32.1267 32.7136C31.9287 33.7538 31.6205 34.1602 30.9734 34.1643C30.3486 34.1685 30.0558 33.802 29.8535 32.7701C29.477 30.8469 29.1158 28.9209 28.7183 27.0018C28.3042 25 27.0671 23.767 25.0394 23.3537C23.0772 22.9541 21.1053 22.596 19.1389 22.2171C18.1696 22.0311 17.7624 21.7129 17.7471 21.1397C17.7303 20.5377 18.1696 20.1823 19.1431 19.9976C21.1108 19.6243 23.08 19.2565 25.045 18.868C27.01 18.4794 28.3348 17.161 28.7239 15.213C29.1158 13.2498 29.4923 11.2838 29.8759 9.31925C29.8968 9.21455 29.9149 9.10985 29.9386 9.00652C30.0627 8.44994 30.3751 8.04765 30.9804 8.05041C31.5801 8.05316 31.9064 8.43065 32.0166 9.00514C32.3122 10.5316 32.6134 12.0567 32.9119 13.5818C33.0179 14.1246 33.1294 14.6674 33.2243 15.213C33.3358 15.8563 33.0095 16.3716 32.4447 16.4749C31.845 16.5851 31.3764 16.2669 31.2091 15.6235C31.1366 15.3466 31.0864 15.0656 31.0264 14.7859L31.0306 14.7818Z" fill="url(#paint0_linear_239_681)"/>
<defs>
<linearGradient id="paint0_linear_239_681" x1="0.00086998" y1="18.5001" x2="61.9989" y2="18.5001" gradientUnits="userSpaceOnUse">
<stop stop-color="#6EAD8B"/>
<stop offset="1" stop-color="#419CCB"/>
</linearGradient>
</defs>
</svg>
